<svg id="Layer_1" data-name="Layer 1" xmlns="http://www.w3.org/2000/svg" viewBox="0 0 481.51 517.5"><defs><style>.cls-1{fill:#007bc1;}.cls-2{fill:#0f5472;}.cls-3{fill:#ebeff2;}</style></defs><title>blob-shape</title><path class="cls-1" d="M435.68,167.84c46.94,50.25,82,109.18,90.07,176.34S515.14,486.59,468.32,524.8s-121.9,39.37-181.63,23.85S182.78,501.3,143.34,463.09,69.42,380.42,68,334.57s30.44-93.09,69.88-143.23S224.3,88.06,277.23,82.16,388.75,117.7,435.68,167.84Z" transform="translate(-68 -56.5)"/><path class="cls-2" d="M488,175.53c44.3,67.38,74,151.14,56.22,210.53s-83.21,94.41-146.14,129.81S274.89,587.06,219.9,569.3,115.31,480.09,103.7,402.17,118.57,239.74,162,172.61,265.52,55.87,325.1,56.5,443.64,108.15,488,175.53Z" transform="translate(-68 -56.5)"/><path class="cls-3" d="M503.12,135c33.28,42.42,48.45,101.41,46.16,158.17S527.46,404.57,494.1,441s-80.26,54.78-132,73.72-108.28,38.66-153.32,21.75S130.1,466,108.39,406.72,77,282.27,101.65,239.45,185.11,176.07,235,146.79,326,79.2,372.19,73,469.82,92.67,503.12,135Z" transform="translate(-68 -56.5)"/></svg>