<svg height="472pt" viewBox="-3 0 471 472" width="472pt" xmlns="http://www.w3.org/2000/svg"><path d="m464.5 112v232h-464v-232c.027344-8.824219 7.175781-15.972656 16-16h432c8.824219.027344 15.972656 7.175781 16 16zm0 0" fill="#bdfdff"/><path d="m248.5 96h-232c-8.824219.027344-15.972656 7.175781-16 16v232c.398438-136.800781 111.199219-247.601562 248-248zm0 0" fill="#d3feff"/><path d="m40.5 64h384v248h-384zm0 0" fill="#5aaae7"/><path d="m464.5 344v24c-.027344 8.824219-7.175781 15.972656-16 16h-432c-8.824219-.027344-15.972656-7.175781-16-16v-24zm0 0" fill="#e0e0e2"/><path d="m40.5 0h384v64h-384zm0 0" fill="#00ccb3"/><path d="m304.5 432v32h-144v-32zm0 0" fill="#57565c"/><path d="m200.5 384h64v48h-64zm0 0" fill="#787680"/><path d="m400.5 208h-56v-56c30.929688 0 56 25.070312 56 56zm0 0" fill="#c2fb3b"/><path d="m344.5 232h32c0 30.929688-25.070312 56-56 56s-56-25.070312-56-56c-.011719-3.898438.390625-7.785156 1.199219-11.601562 5.480469-25.886719 28.339843-44.40625 54.800781-44.398438v56zm0 0" fill="#ffda44"/><g fill="#d80027"><path d="m200.5 96h32v120h-32zm0 0"/><path d="m136.5 120h32v96h-32zm0 0"/><path d="m72.5 160h32v56h-32zm0 0"/><path d="m104.5 264c0 8.835938-7.164062 16-16 16s-16-7.164062-16-16 7.164062-16 16-16 16 7.164062 16 16zm0 0"/></g><path d="m136.5 456h192v16h-192zm0 0" fill="#3e3d42"/><path d="m64.5 24h16v16h-16zm0 0" fill="#d80027"/><path d="m96.5 24h16v16h-16zm0 0" fill="#ffda44"/><path d="m128.5 24h16v16h-16zm0 0" fill="#c2fb3b"/><path d="m56.5 208h192v16h-192zm0 0" fill="#e0e0e2"/><path d="m272.5 88h16v16h-16zm0 0" fill="#1a6fb0"/><path d="m304.5 88h96v16h-96zm0 0" fill="#1a6fb0"/><path d="m272.5 120h32v16h-32zm0 0" fill="#1a6fb0"/><path d="m128.5 256h120v16h-120zm0 0" fill="#e0e0e2"/><path d="m200.5 384h64v16h-64zm0 0" fill="#57565c"/></svg>